<?xml version="1.0" encoding="UTF-8" standalone="no"?>
<!-- Created with Inkscape (http://www.inkscape.org/) -->

<svg
   xmlns:dc="http://purl.org/dc/elements/1.1/"
   xmlns:cc="http://creativecommons.org/ns#"
   xmlns:rdf="http://www.w3.org/1999/02/22-rdf-syntax-ns#"
   xmlns:svg="http://www.w3.org/2000/svg"
   xmlns="http://www.w3.org/2000/svg"
   xmlns:sodipodi="http://sodipodi.sourceforge.net/DTD/sodipodi-0.dtd"
   xmlns:inkscape="http://www.inkscape.org/namespaces/inkscape"
   width="87.281128mm"
   height="70.97702mm"
   viewBox="0 0 87.281129 70.97702"
   version="1.1"
   id="svg1198"
   inkscape:version="0.92.4 (5da689c313, 2019-01-14)"
   sodipodi:docname="logo.svg"
   inkscape:export-filename="/home/ofisette/dev/Dorothy.jl/docs/src/assets/logo.png"
   inkscape:export-xdpi="46.562183"
   inkscape:export-ydpi="46.562183">
  <defs
     id="defs1192" />
  <sodipodi:namedview
     id="base"
     pagecolor="#ffffff"
     bordercolor="#666666"
     borderopacity="1.0"
     inkscape:pageopacity="0.0"
     inkscape:pageshadow="2"
     inkscape:zoom="1.4"
     inkscape:cx="187.83385"
     inkscape:cy="97.35016"
     inkscape:document-units="mm"
     inkscape:current-layer="layer1"
     showgrid="false"
     inkscape:window-width="1920"
     inkscape:window-height="1125"
     inkscape:window-x="0"
     inkscape:window-y="0"
     inkscape:window-maximized="1"
     fit-margin-top="0"
     fit-margin-left="0"
     fit-margin-right="0"
     fit-margin-bottom="0" />
  <metadata
     id="metadata1195">
    <rdf:RDF>
      <cc:Work
         rdf:about="">
        <dc:format>image/svg+xml</dc:format>
        <dc:type
           rdf:resource="http://purl.org/dc/dcmitype/StillImage" />
        <dc:title />
      </cc:Work>
    </rdf:RDF>
  </metadata>
  <g
     inkscape:label="Calque 1"
     inkscape:groupmode="layer"
     id="layer1"
     transform="translate(16.130732,-46.619523)">
    <path
       style="fill:#c0c0c0;fill-opacity:1;stroke-width:0.08466666"
       d="m 46.036088,117.54933 c -0.32501,-0.0409 -0.454719,-0.18619 -0.692785,-0.7762 -0.237761,-0.58925 -0.231919,-1.04342 0.03039,-2.3618 0.486994,-2.4477 0.866411,-3.64801 2.094933,-6.62753 0.358445,-0.86932 0.428955,-1.17005 0.415764,-1.77321 -0.02097,-0.95933 -0.318016,-1.68391 -1.042551,-2.54318 -0.624883,-0.74108 -1.15703,-0.99023 -3.587445,-1.67975 -0.651934,-0.18495 -1.253601,-0.36289 -1.337039,-0.39543 -0.131388,-0.0512 -0.12131,0.008 0.07525,0.43811 0.343753,0.75315 0.34739,0.89807 0.03476,1.38526 -0.257753,0.40167 -0.291791,0.42432 -0.63754,0.42432 -0.503275,0 -0.616353,-0.0586 -0.797191,-0.41306 -0.266914,-0.52319 -0.76724,-1.81285 -0.76724,-1.97766 0,-0.0861 -0.26864,-0.83868 -0.596978,-1.672473 -0.727803,-1.848214 -0.908477,-2.720687 -0.781039,-3.771629 0.04911,-0.404971 0.174368,-0.888554 0.302862,-1.16922 0.185956,-0.406181 0.253078,-0.478622 0.44348,-0.478622 0.170003,0 0.367714,-0.1535 0.81603,-0.633552 0.738088,-0.790338 1.773798,-1.445023 2.422069,-1.53102 0.242866,-0.03222 0.441576,-0.07408 0.441576,-0.09302 0,-0.07502 -1.056401,-1.715772 -1.482437,-2.302452 l -0.452446,-0.623048 -0.430527,0.402707 -0.430526,0.402706 -0.528199,-0.504005 c -0.35722,-0.340858 -0.692639,-0.569217 -1.036199,-0.705465 -1.12253,-0.44517 -1.852785,-1.091732 -2.554472,-2.26171 -0.813655,-1.356668 -1.78902,-4.037676 -2.226901,-6.121135 -0.102764,-0.48895 -0.240569,-1.076891 -0.306234,-1.306534 -0.145807,-0.509909 -0.154524,-1.032427 -0.01863,-1.116417 0.06128,-0.03787 -0.02798,-0.0984 -0.227765,-0.154453 -0.315686,-0.08857 -0.333979,-0.113767 -0.467896,-0.644402 -0.07665,-0.303724 -0.20676,-0.728698 -0.289132,-0.944387 l -0.149769,-0.392162 -0.367347,0.157464 c -0.202042,0.0866 -0.928639,0.295839 -1.614661,0.464964 -1.256427,0.309747 -1.899892,0.565294 -2.166544,0.860424 -0.137304,0.151967 -0.130639,0.192364 0.130735,0.792317 0.151478,0.347703 0.490175,1.013186 0.752659,1.478853 0.419095,0.743508 0.540988,1.07846 1.000419,2.749084 0.287747,1.04633 0.655367,2.282193 0.816934,2.746362 0.504879,1.450481 0.623422,2.662927 0.319483,3.267641 -0.05854,0.116465 -0.133918,0.431751 -0.167513,0.700636 -0.167422,1.340001 -1.579657,3.14462 -3.091449,3.950397 -0.614961,0.327771 -0.926464,0.327902 -1.77481,7.62e-4 -1.136555,-0.438319 -2.579358,-1.48039 -4.615111,-3.333301 -1.203893,-1.095765 -1.481666,-1.312075 -1.481666,-1.153818 0,0.202179 0.4331,3.241366 0.555662,3.899236 0.23443,1.258343 0.29059,2.351406 0.147171,2.864411 -0.231852,0.82932 -1.341019,1.835901 -3.031167,2.750826 -1.301855,0.704723 -2.034364,0.812419 -2.889602,0.424823 -0.906248,-0.410709 -1.920327,-1.023958 -3.327655,-2.01234 -0.765192,-0.537399 -1.403224,-0.965128 -1.417848,-0.950503 -0.01462,0.01462 0.07122,0.652207 0.190755,1.416856 0.188396,1.205086 0.207077,1.498066 0.140251,2.199682 -0.105732,1.110077 -0.352714,1.638397 -0.9839165,2.104697 -0.676184,0.49952 -0.764421,0.66087 -0.667872,1.22127 l 0.07849,0.45558 -0.456743,0.32919 -0.456743,0.32917 0.323442,0.28323 c 0.372845,0.32649 0.923711,0.61447 2.0591085,1.07647 2.34336,0.95352 3.499311,2.16083 4.050414,4.23036 0.328009,1.23176 0.214365,2.77799 -0.286097,3.89261 -0.291829,0.64995 -1.056604,2.76544 -1.31155,3.62795 l -0.196451,0.66462 -0.322948,-0.0517 c -0.483436,-0.0773 -1.261334,-0.38855 -1.313977,-0.52573 -0.0574,-0.14958 0.943935,-3.11346 1.415842,-4.19079 0.304421,-0.69498 0.354002,-0.89729 0.396158,-1.61647 0.05431,-0.92648 -0.07229,-1.53826 -0.486898,-2.35293 -0.372392,-0.73173 -1.287213,-1.50567 -2.198493,-1.85994 -0.9347065,-0.36338 -2.2275175,-1.00148 -2.6795965,-1.3226 -0.400813,-0.28471 -0.941537,-0.83734 -1.089075,-1.11308 -0.0059,-0.011 -0.272931,0.0349 -0.593465,0.10198 -0.375111,0.0785 -0.617525,0.0931 -0.680264,0.041 -0.149021,-0.12367 -0.302658,-1.22666 -0.23837,-1.7113 0.05483,-0.4133 0.479516,-1.37974 1.218162,-2.772101 0.275037,-0.518448 0.336838,-0.720471 0.336711,-1.100667 -2.54e-4,-0.637438 -0.362083,-2.61374 -0.713132,-3.894666 -0.26334,-0.960896 -0.347318,-1.465004 -0.314138,-1.885725 0.02368,-0.300247 0.758231,-0.955006 1.955037,-1.742666 1.12109,-0.737828 1.206159,-0.811358 1.016,-0.878184 -0.33354,-0.117215 -1.013652,-1.121734 -1.332829,-1.96858 -0.158573,-0.420726 -0.369831,-1.239246 -0.4703,-1.822178 L 6.2550565,85.39421 5.7639625,85.156244 c -0.914297,-0.443035 -1.864986,-0.457159 -2.218239,-0.03296 -0.324898,0.390151 -1.195431,0.905925 -1.529038,0.905925 -0.62891,0 -2.26272001,-1.169104 -2.95860001,-2.117083 l -0.30853099,-0.420303 -0.724181,0.90886 c -0.82631,1.037031 -1.471287,1.727729 -2.141983,2.29382 -0.256117,0.216171 -0.465667,0.456653 -0.465667,0.534405 0,0.202378 -2.376411,2.439715 -2.982316,2.807783 -1.070359,0.650209 -2.240902,0.864267 -3.7574065,0.687122 -1.675266,-0.195691 -2.122646,-0.352016 -3.350736,-1.170821 -0.634185,-0.422831 -0.988928,-0.962648 -1.269749,-1.9322 -0.31112,-1.074157 -0.24586,-1.684088 0.265083,-2.477518 0.151022,-0.234519 0.928438,-1.03553 1.727591,-1.780023 1.223619,-1.139927 1.522005,-1.467402 1.890082,-2.074333 1.06855,-1.761957 1.143509,-1.825561 2.2619055,-1.919261 0.307384,-0.02575 0.863679,-0.142729 1.236213,-0.259948 0.587208,-0.184768 0.882931,-0.218884 2.2225,-0.2564 0.849842,-0.0238 1.545167,-0.0769 1.545167,-0.117989 0,-0.04109 0.1413,-0.28753 0.314001,-0.547636 l 0.314001,-0.47292 0.584918,0.03305 c 0.53237,0.03008 0.606766,0.0575 0.828127,0.30525 l 0.243209,0.272199 1.67457099,-0.787118 C 1.3314465,76.519772 2.1160125,75.973303 2.7647785,75.030733 l 0.256603,-0.37281 -0.489674,-0.43448 -0.489673,-0.434479 0.189608,-0.371662 c 0.219305,-0.429872 0.197885,-0.91691 -0.08526,-1.938682 -0.0907,-0.327305 -0.18958,-0.860531 -0.219732,-1.184948 -0.03015,-0.324417 -0.07878,-0.628618 -0.108066,-0.676004 -0.03528,-0.05709 -0.252798,-0.04302 -0.644719,0.0417 -1.22336201,0.264439 -3.195801,0.01671 -4.311125,-0.541457 -1.469951,-0.735645 -3.010411,-2.406228 -3.740039,-4.055966 -0.487984,-1.103362 -0.679331,-2.848325 -0.419415,-3.824788 0.288225,-1.082813 1.212539,-2.043714 2.96844,-3.085942 1.151339,-0.683387 1.578382,-0.857053 1.957489,-0.796059 0.217682,0.03502 0.336849,-0.01809 0.677334,-0.301884 0.62434,-0.520389 1.14038399,-0.826731 1.39265699,-0.826731 0.263656,0 0.944062,0.283975 1.083783,0.452328 0.05278,0.0636 0.110942,0.454566 0.129246,0.868819 l 0.03328,0.753187 0.60160501,0.366018 c 0.330882,0.20131 0.601047,0.41086 0.600365,0.465667 -6.78e-4,0.05481 -0.172351,0.439155 -0.381486,0.854107 -0.209135,0.414952 -0.36455,0.770155 -0.345366,0.789339 0.01918,0.01918 0.181327,-0.0058 0.360319,-0.05549 0.447029,-0.124129 0.906647,-0.114027 1.705322,0.03748 1.006125,0.190859 1.738399,0.555056 2.310969,1.149361 l 0.479977,0.498197 0.138954,-0.553175 c 0.180129,-0.7171 0.886113,-1.817927 1.504918,-2.346588 0.56225,-0.480345 1.219204,-0.783593 1.991792,-0.919405 0.3165285,-0.05564 0.6095645,-0.130983 0.6511915,-0.167424 0.11076,-0.09696 -0.193929,-1.885655 -0.427996,-2.51257 C 9.8968055,55.26553 9.4399155,54.34707 9.0009885,53.624581 c -0.177623,-0.292375 -0.416177,-0.845716 -0.530119,-1.229648 -0.181319,-0.610966 -0.1994,-0.787848 -0.144921,-1.417726 0.09472,-1.095146 0.486036,-2.021693 1.227382,-2.906163 0.247015,-0.294704 0.5428685,-0.509973 1.0620605,-0.772778 1.05608,-0.534565 2.10614,-0.682236 4.826,-0.678681 2.380186,0.0031 2.796334,0.0583 4.570648,0.606172 1.34353,0.414852 1.824795,0.654205 3.345685,1.663947 2.129524,1.413823 2.590267,2.007579 2.872537,3.701815 0.154796,0.929112 0.996166,1.480378 2.39718,1.570632 l 0.826283,0.05323 0.722671,-0.382322 c 0.397469,-0.210277 1.273769,-0.798547 1.947333,-1.307267 1.748164,-1.320328 1.953247,-1.448059 2.551378,-1.589067 0.680423,-0.160407 1.130775,-0.160812 1.961951,-0.0018 1.3104,0.250751 2.011205,0.685617 4.010254,2.48846 0.849504,0.766125 0.982561,0.855871 1.27,0.856612 0.690616,0.0018 1.153332,0.331371 2.776412,1.977631 1.350264,1.369545 1.634998,1.614496 2.497666,2.148648 0.535517,0.331586 1.169611,0.80546 1.409108,1.053055 0.465539,0.481291 0.865953,0.879458 1.457553,1.449372 0.418778,0.403427 1.366046,1.729586 1.931679,2.704319 0.209219,0.360535 0.41396,0.676259 0.454973,0.701609 0.04102,0.02535 0.295029,-0.01008 0.564464,-0.07874 2.235953,-0.569746 7.69581,-0.360492 10.014652,0.383822 0.518897,0.166556 1.34526,0.669811 1.838384,1.119566 0.376081,0.343009 0.557903,0.604936 0.855709,1.232707 l 0.378164,0.797151 -0.05349,0.874315 c -0.0737,1.204525 0.06103,2.350965 0.417195,3.550011 0.436939,1.470942 0.552941,2.217725 0.492057,3.167705 -0.03731,0.582135 -0.107967,0.931029 -0.255778,1.262958 -0.252713,0.5675 -0.901514,1.341201 -1.154879,1.37721 -0.158572,0.02254 -0.197222,0.09591 -0.241469,0.458453 -0.02898,0.237392 -0.09861,0.570767 -0.154737,0.740833 -0.09872,0.299126 -0.115401,0.309212 -0.51137,0.309212 -0.595266,0 -1.536733,-0.20074 -2.460142,-0.524556 l -0.80827,-0.283436 0.03245,0.975496 c 0.03659,1.099955 -0.08583,1.785452 -0.620251,3.473163 -0.260562,0.822848 -0.301321,1.053229 -0.263128,1.487316 0.04411,0.501372 0.03907,0.517266 -0.210921,0.664938 l -0.256108,0.151289 0.324239,0.21436 c 0.178334,0.117898 0.465193,0.348397 0.637455,0.51222 0.31005,0.294854 0.311972,0.300825 0.1905,0.591542 -0.163415,0.3911 -0.167064,0.384835 0.185768,0.318643 0.52771,-0.099 1.302029,0.168197 1.867805,0.644523 0.530818,0.446891 0.615239,0.59882 0.923146,1.66135 0.435111,1.501487 0.9562,1.889782 3.250574,2.422189 0.535516,0.124266 1.183216,0.316843 1.439333,0.427948 0.256117,0.111104 0.643602,0.264526 0.861085,0.340936 0.240987,0.08467 0.596121,0.327331 0.909337,0.621337 l 0.513918,0.482408 -0.158927,0.661681 c -0.09826,0.409095 -0.235298,0.744843 -0.359004,0.879535 -0.241402,0.262845 -1.180736,0.706457 -2.032406,0.959829 -2.216811,0.659494 -3.29355,1.89462 -3.429212,3.933625 -0.04544,0.68306 0.147608,2.22386 0.290966,2.3223 1.765139,1.21212 2.304448,2.11899 2.303847,3.87399 -8.46e-4,2.32841 -0.924086,3.75379 -3.767937,5.81708 -1.402571,1.01759 -1.823678,1.23696 -2.374511,1.23696 -0.493335,0 -1.267155,-0.29817 -1.621756,-0.6249 -0.256921,-0.23673 -0.293353,-0.32771 -0.351493,-0.87793 -0.08321,-0.78735 0.01422,-1.69279 0.226856,-2.10815 0.21601,-0.42195 0.854879,-1.08277 1.496237,-1.54766 0.708406,-0.51348 1.107474,-0.90368 1.478196,-1.44536 0.69618,-1.01723 0.934804,-1.72823 0.934804,-2.78531 v -0.57564 l -0.330911,-0.14922 c -0.601015,-0.27102 -1.737521,-1.09584 -2.229671,-1.61818 -1.476595,-1.5672 -1.339198,-3.111605 0.560298,-6.298269 0.838353,-1.40646 1.095646,-2.443896 0.811471,-3.272035 -0.183015,-0.533331 -0.511937,-1.073071 -0.91655,-1.503985 -0.343476,-0.365807 -1.520461,-1.323362 -1.626616,-1.323362 -0.03758,0 -0.365786,0.209298 -0.729344,0.465106 -1.54703,1.088536 -2.770954,1.499524 -3.886877,1.305195 -0.405181,-0.07056 -0.573753,-0.138536 -0.600888,-0.242312 -0.02164,-0.08276 -0.224595,-0.209434 -0.476149,-0.297198 -0.883047,-0.308079 -1.915761,-0.972132 -3.232429,-2.07851 -1.104951,-0.928476 -2.086601,-1.621023 -2.223346,-1.56855 -0.06536,0.02508 -0.216451,0.0456 -0.335754,0.0456 h -0.216916 l 0.05637,0.675849 c 0.0712,0.853793 0.364947,1.690301 1.224356,3.486668 0.823561,1.721445 1.078052,2.124154 1.978533,3.130876 0.389763,0.435751 0.864946,0.983086 1.055954,1.216302 l 0.347294,0.424028 -0.201363,0.396213 c -0.434856,0.85565 -1.517743,2.217115 -2.13448,2.683586 -0.419151,0.317026 -0.389552,0.327525 -1.094046,-0.388086 -0.374836,-0.380738 -0.705976,-0.578544 -2.159,-1.289685 l -1.716269,-0.839978 -0.169334,0.221801 c -0.447336,0.585944 -0.886002,0.991387 -1.408479,1.301784 -0.693148,0.411785 -0.790823,0.515806 -0.679571,0.72368 0.22416,0.418846 0.963364,0.794351 2.712857,1.378077 1.582411,0.527985 2.345732,0.902395 3.000095,1.471535 0.943559,0.82069 1.583402,2.26517 1.580633,3.56835 -0.002,0.96559 -0.219261,1.66729 -0.995908,3.21733 -0.882227,1.76076 -1.022562,2.16944 -2.485009,7.23717 -0.08705,0.30168 -0.158284,0.74184 -0.158284,0.97816 0,0.34687 -0.05035,0.49811 -0.261324,0.78499 -0.14373,0.19544 -0.324705,0.34925 -0.402167,0.3418 -0.07746,-0.007 -0.26068,-0.0286 -0.407145,-0.047 z m 16.458929,-6.43652 c 0.360824,-0.27302 0.952796,-0.71873 1.315499,-0.99047 1.20214,-0.90064 1.932026,-1.85433 2.142473,-2.79942 0.231919,-1.04153 0.118822,-2.00412 -0.301277,-2.56421 l -0.208678,-0.27822 -0.155474,0.81836 c -0.282998,1.48956 -1.280253,3.0617 -2.443014,3.85131 -0.654431,0.44442 -1.289329,1.07706 -1.504831,1.49947 -0.176835,0.34663 -0.236915,0.86179 -0.114825,0.98463 0.149927,0.15084 0.656429,-0.0571 1.270127,-0.52145 z m 1.049451,-10.33039 c -0.04188,-0.827191 0.11662,-1.92177 0.389238,-2.688164 0.5408,-1.520291 1.902291,-2.679736 3.835857,-3.266601 0.76073,-0.230892 1.519826,-0.568831 1.519826,-0.676606 0,-0.04315 -0.04458,-0.07846 -0.09908,-0.07846 -0.0545,0 -0.349775,-0.112791 -0.656166,-0.250647 -0.3064,-0.137855 -0.98823,-0.351329 -1.515178,-0.474387 -0.526948,-0.123058 -1.327048,-0.367505 -1.778,-0.543216 l -0.819912,-0.319474 -0.05364,0.688029 c -0.08182,1.049627 -0.42302,1.947354 -1.259586,3.314151 -1.08535,1.773241 -1.394951,2.857178 -1.022282,3.579075 0.191101,0.3702 0.703724,0.88468 1.16227,1.16648 0.179612,0.11039 0.327304,0.20189 0.32821,0.20335 9.31e-4,10e-4 -0.0133,-0.29264 -0.03156,-0.65353 z M 42.450057,99.864162 c 0,-0.02774 -0.071,-0.151562 -0.157785,-0.275167 -0.181642,-0.258716 -0.519774,-1.005018 -0.519076,-1.145667 0.0028,-0.570475 0.741382,-1.519631 1.469552,-1.888625 0.449589,-0.227821 0.985302,-0.620211 0.985307,-0.721695 6e-6,-0.170042 -2.451858,-0.740006 -3.194444,-0.742586 -0.525371,-0.0018 -0.528072,-5.93e-4 -0.686706,0.315668 -0.367583,0.732806 -0.2538,1.791072 0.347282,3.229982 l 0.367806,0.880491 0.418866,0.108187 c 0.230376,0.0595 0.514115,0.146643 0.630532,0.19365 0.252587,0.101981 0.338666,0.113605 0.338666,0.04576 z M 16.796059,94.624231 c 0,-0.06913 -0.112248,-0.688256 -0.24944,-1.375833 -0.278795,-1.39726 -0.681894,-4.243665 -0.681894,-4.815061 0,-0.204644 -0.02463,-0.37208 -0.05474,-0.37208 -0.05314,0 -0.257539,0.129528 -1.68093,1.065209 -0.967773,0.636176 -1.942095,1.084011 -2.648314,1.217265 -0.336244,0.06344 -0.610583,0.137817 -0.609643,0.165273 0.002,0.05757 0.919569,0.740688 2.495957,1.85816 0.605366,0.429134 1.595966,1.140398 2.201333,1.580586 0.605367,0.44019 1.129242,0.800756 1.164167,0.801259 0.03493,5.08e-4 0.0635,-0.05565 0.0635,-0.124778 z M 45.624913,91.43195 c -0.454126,-1.436521 -0.354135,-2.729643 0.305969,-3.956953 0.357056,-0.663863 1.13317,-1.69974 1.273505,-1.69974 0.04569,0 0.06479,-0.06667 0.04243,-0.148167 -0.02235,-0.08149 -0.06391,-0.286551 -0.09234,-0.455688 -0.04992,-0.296994 -0.03981,-0.312274 0.295368,-0.446385 0.190881,-0.07638 0.334645,-0.173805 0.319465,-0.216508 -0.01517,-0.0427 -0.218093,-0.311772 -0.450927,-0.597928 -0.232833,-0.286157 -0.567986,-0.698044 -0.744787,-0.915304 -0.176801,-0.217262 -0.497298,-0.749881 -0.712216,-1.1836 -0.289484,-0.5842 -0.620217,-1.055984 -1.276085,-1.820334 -1.562772,-1.821253 -2.709092,-3.429701 -3.172173,-4.451005 -1.039086,-2.291655 -1.212039,-3.711274 -0.561549,-4.60925 0.422484,-0.583222 0.347552,-0.726191 -0.903767,-1.724345 -0.585568,-0.467097 -0.859408,-0.653398 -2.014212,-1.370316 l -0.833457,-0.517421 -0.832887,0.211126 c -0.485585,0.123089 -1.073869,0.211126 -1.410805,0.211126 -0.6241,0 -1.650709,-0.249994 -2.559825,-0.623352 -0.651369,-0.267507 -0.78035,-0.274853 -0.978639,-0.05575 -0.146963,0.162391 -0.141848,0.181798 0.165516,0.628077 0.17444,0.253279 0.58435,0.758898 0.91091,1.123597 0.721369,0.805617 1.381685,1.765427 1.57366,2.287409 0.181283,0.49291 0.449473,0.675612 1.676457,1.14207 0.529907,0.201453 0.963022,0.404378 0.962477,0.450944 -5.08e-4,0.04657 -0.0898,0.239949 -0.198343,0.429739 l -0.197354,0.345071 0.313965,0.519243 c 0.172681,0.285584 0.336149,0.682752 0.363261,0.882595 0.02711,0.199844 0.203877,0.915802 0.392811,1.591019 0.188934,0.675216 0.494284,1.856316 0.678555,2.624666 0.61993,2.584902 1.037132,3.890311 1.48657,4.651421 0.43052,0.729073 0.684667,0.990149 1.048841,1.077433 0.614732,0.147338 1.278,0.645697 2.095215,1.574282 l 0.521472,0.592538 -0.472523,0.439823 -0.472522,0.439822 0.600131,0.840567 c 0.474233,0.66423 1.438666,2.20109 2.041597,3.253365 0.07706,0.134486 0.967156,0.347072 1.012199,0.241748 0.01457,-0.03407 -0.07362,-0.378608 -0.19597,-0.765639 z m 9.457834,-2.025751 c 0.02305,-0.06916 0.157209,-0.06828 0.50198,0.0033 0.335458,0.06964 0.582481,0.07259 0.860586,0.01026 0.434602,-0.09739 0.990744,-0.341227 0.990744,-0.434373 0,-0.101684 -1.40578,-0.663614 -2.864578,-1.145056 -0.760612,-0.251019 -1.398787,-0.456397 -1.418167,-0.456397 -0.108314,0 0.0041,0.355403 0.242477,0.766427 0.306231,0.528086 0.825678,1.03243 1.255496,1.218994 0.351765,0.152682 0.391711,0.156094 0.431462,0.03686 z M -8.6723655,88.776227 c 0.327924,-0.212133 1.108173,-0.878883 1.733886,-1.481667 0.76629,-0.738208 1.199398,-1.09597 1.326784,-1.09597 0.336357,0 1.086252,-0.87625 1.956357,-2.286 0.273042,-0.442383 0.712674,-1.07213 0.976963,-1.399437 l 0.480523,-0.595105 -0.347695,-0.631476 c -0.427345,-0.776135 -0.330913,-0.748905 -2.893316,-0.81697 -1.840263,-0.04888 -1.884112,-0.04603 -2.54,0.165102 -0.367075,0.118164 -0.871172,0.235925 -1.120214,0.261692 -0.790416,0.08178 -0.9963125,0.243133 -1.6233395,1.272137 -0.65438,1.073894 -0.565219,0.972283 -2.050405,2.336724 -1.334911,1.226383 -1.588452,1.606793 -1.588452,2.383306 0,0.268066 0.04087,0.577091 0.09082,0.686722 0.137297,0.301333 1.321371,1.058973 1.978567,1.266002 0.386061,0.121618 1.787163,0.299722 2.4454545,0.31086 0.549405,0.0093 0.607182,-0.0092 1.174067,-0.37592 z M 27.254874,87.628142 c -0.07716,-0.461456 -0.235038,-1.114757 -0.350839,-1.451781 -0.3189,-0.928126 -0.545367,-2.130043 -0.57012,-3.025771 -0.02116,-0.765602 -0.04124,-0.843065 -0.417101,-1.608666 -0.21718,-0.442384 -0.460544,-1.055769 -0.540809,-1.36308 -0.189261,-0.724631 -0.08081,-1.251589 0.476828,-2.316762 0.220313,-0.420838 0.428113,-0.913733 0.461777,-1.095324 0.08617,-0.464814 0.651925,-1.09202 1.315707,-1.458613 0.610194,-0.336998 1.148983,-0.518467 2.458408,-0.828016 0.48895,-0.115589 1.032747,-0.270297 1.208437,-0.343795 0.366098,-0.153155 0.376575,-0.105925 -0.233188,-1.051288 -0.767519,-1.189944 -1.368173,-2.658792 -1.518522,-3.713411 -0.02817,-0.197609 -0.126867,-0.483359 -0.219324,-0.635 -0.203991,-0.33457 -0.223552,-1.00952 -0.04569,-1.576681 0.06767,-0.215799 0.16383,-0.552209 0.213682,-0.747578 0.125171,-0.490549 0.838205,-1.263658 1.273589,-1.380895 0.400026,-0.107716 0.986905,-0.740813 1.063066,-1.146786 0.06666,-0.355336 -0.216812,-0.75331 -0.869472,-1.220669 -0.697097,-0.499181 -2.646406,-1.263564 -3.539574,-1.387975 -0.110269,-0.01536 -0.130794,-0.108046 0.419238,1.893207 0.507552,1.846695 0.684083,2.866152 0.597438,3.450166 -0.04544,0.306278 -0.08304,0.359834 -0.25264,0.359834 -0.187841,0 -0.202085,0.03759 -0.248644,0.656166 -0.09922,1.318222 -0.280839,2.024904 -0.971442,3.779902 -1.271015,3.229973 -1.622407,3.815411 -3.414533,5.688789 -1.812804,1.894993 -2.554399,2.709413 -2.707904,2.973824 -0.14308,0.246454 -0.141638,0.251546 0.280718,0.990692 0.366154,0.64079 0.413455,0.774755 0.343954,0.974125 -0.07499,0.215116 -0.639236,1.049997 -1.228887,1.818311 l -0.25286,0.329476 0.291045,-0.0546 c 0.596743,-0.111949 1.823529,0.360576 2.784184,1.072395 0.256116,0.189775 0.923986,0.758134 1.484156,1.26302 1.351852,1.218436 2.78174,2.295168 2.820564,2.123935 0.01598,-0.07048 -0.03408,-0.505696 -0.111238,-0.967151 z M 10.62912,86.076985 c 0.605639,-0.108012 0.732169,-0.172057 1.905,-0.964249 1.767016,-1.193538 2.062359,-1.546578 2.059306,-2.461613 -0.0015,-0.448615 -0.269279,-1.578607 -0.462756,-1.952749 -0.168046,-0.324966 -0.39303,-0.378076 -1.308761,-0.308947 -0.406245,0.03067 -1.107186,0.01466 -1.557647,-0.03557 l -0.81902,-0.09133 -0.401759,0.337669 c -0.3475375,0.292097 -1.2537745,0.884767 -1.4666425,0.95917 -0.03916,0.01369 0.04071,0.463035 0.17749,0.998551 0.21101,0.826149 0.249144,1.140427 0.251698,2.074334 0.0039,1.431133 0.01404,1.464697 0.453911,1.504765 0.193116,0.01759 0.38922,0.03731 0.435787,0.04382 0.04657,0.0065 0.3765925,-0.04022 0.7333935,-0.103859 z M 2.3134445,84.344546 c 0.134647,-0.251591 1.186455,-0.87548 1.664324,-0.987209 0.515293,-0.120479 1.367731,-0.0016 1.994389,0.278147 l 0.394432,0.176074 0.04891,-0.182317 c 0.07691,-0.286698 0.05684,-1.439352 -0.02739,-1.572422 -0.06165,-0.09741 -0.561552,-0.130093 -2.645407,-0.17296 -1.413163,-0.02907 -2.616731,-0.08212 -2.674597,-0.117878 -0.10938001,-0.0676 -0.75037101,0.246428 -1.11194101,0.544753 l -0.202893,0.167402 0.304537,0.442061 c 0.78342,1.137197 1.99863201,1.90456 2.25563301,1.424349 z M 52.489644,82.811923 c 0.01553,0 -0.03222,-0.161925 -0.106096,-0.359833 -0.09406,-0.251947 -0.135568,-0.664454 -0.138455,-1.375833 -0.0045,-1.111532 0.08418,-1.474944 0.669721,-2.744123 0.366505,-0.794407 1.25244,-2.25133 1.586908,-2.609668 l 0.255549,-0.273791 -0.266835,-0.332048 c -0.434306,-0.540438 -4.011371,-5.754932 -5.164997,-7.52931 -0.589449,-0.906631 -1.033382,-1.725457 -1.033382,-1.906059 0,-0.315681 -1.975172,-3.357522 -2.80013,-4.312319 -0.565217,-0.654171 -3.04187,-2.427287 -3.04187,-2.177773 0,0.04244 0.07389,0.264607 0.164191,0.493712 0.09031,0.229106 0.222347,0.723129 0.293427,1.097831 0.113,0.595689 0.114312,0.764456 0.01044,1.343411 -0.20331,1.13323 -0.57777,1.996954 -1.116371,2.575003 l -0.204551,0.219533 0.340802,0.225533 c 0.187442,0.124042 0.740362,0.56853 1.228712,0.987748 1.810893,1.554543 2.2897,2.854646 1.825176,4.955943 -0.370052,1.673991 -0.195368,2.203021 1.395171,4.225175 0.325967,0.414423 0.95968,1.180431 1.408261,1.702238 0.961059,1.117959 1.442593,1.806497 1.773004,2.535215 0.132546,0.292317 0.601345,1.007054 1.04179,1.588303 0.440436,0.58125 0.899905,1.252385 1.02102,1.491411 l 0.220227,0.434593 0.30502,-0.127445 c 0.167767,-0.0701 0.317729,-0.127447 0.333265,-0.127447 z m 4.431309,-1.728153 c 0.273355,-1.236732 0.283185,-1.337242 0.188451,-1.926166 -0.05497,-0.341741 -0.163051,-0.826057 -0.240174,-1.076258 l -0.140233,-0.454912 -0.471975,0.04678 c -0.259579,0.02573 -0.738665,0.135186 -1.064632,0.243245 l -0.592667,0.19647 0.02939,0.296333 c 0.04503,0.454056 0.23545,0.970846 0.73312,1.989667 0.449021,0.919238 1.101632,1.989666 1.213037,1.989666 0.03151,0 0.187071,-0.587169 0.345685,-1.30482 z M 17.295287,80.581683 c 0.260941,-0.36515 0.52434,-0.733055 0.585331,-0.817567 0.09553,-0.132367 0.06854,-0.237764 -0.19477,-0.760625 l -0.305664,-0.606967 0.305985,-0.556671 c 0.42717,-0.77714 0.672,-1.077819 1.358407,-1.668272 1.507234,-1.296538 2.844919,-2.552995 3.188085,-2.994497 0.524127,-0.674319 1.140643,-1.725162 1.801115,-3.069978 0.545627,-1.110973 0.571677,-1.193865 0.811542,-2.582333 0.136301,-0.788984 0.247877,-1.476025 0.247946,-1.526758 7.1e-5,-0.05073 -0.09685,-0.136431 -0.215387,-0.190438 -0.251565,-0.114621 -0.250053,-0.132488 0.144484,-1.706986 0.188341,-0.751623 0.57903,-2.833134 0.57903,-3.084953 0,-0.09892 -0.715617,-0.221644 -1.587499,-0.272243 l -0.9525,-0.05528 -3.39e-4,0.965404 c -5.08e-4,1.353725 -0.179761,2.349372 -0.595395,3.306503 -0.30814,0.709595 -0.446336,0.903147 -1.3345,1.869048 -0.544921,0.592615 -1.276515,1.310901 -1.625765,1.596191 -0.34925,0.285291 -1.101214,0.917752 -1.671031,1.40547 -0.957318,0.819389 -1.071905,0.95012 -1.508205,1.720689 -0.259696,0.458659 -0.602155,1.197596 -0.76102,1.642081 -0.158864,0.444484 -0.410807,1.028339 -0.559872,1.297455 -1.118091,2.018546 -1.57688,2.68604 -2.60587,3.791299 l -0.551769,0.592667 1.140717,0.05328 c 0.892676,0.0417 1.223563,0.09134 1.521717,0.228304 0.785254,0.36072 1.123617,0.896002 1.410614,2.231561 l 0.14768,0.687243 0.376249,-0.414864 c 0.206936,-0.228174 0.589746,-0.713621 0.850686,-1.07877 z M 6.6738325,78.733094 7.0552235,78.464266 6.6974755,78.166243 C 6.2195815,77.768135 5.4455045,76.9817 4.7777625,76.215884 l -0.545964,-0.626151 -0.215746,0.287928 c -0.486674,0.649499 -1.275538,1.392128 -1.978708,1.862734 -0.41051,0.274741 -0.69626,0.501316 -0.635,0.5035 0.06126,0.0022 0.511594,0.07003 1.000743,0.150773 0.61629,0.101727 1.000654,0.124793 1.251827,0.07512 0.416,-0.08227 1.336486,0.07915 2.010972,0.352657 0.552666,0.224105 0.564765,0.223032 1.007946,-0.08935 z m 1.753901,-1.69967 c 0.120054,-0.244475 0.578579,-0.99695 1.018941,-1.672167 1.2441015,-1.907604 1.9839245,-3.190724 2.3188205,-4.021666 0.16891,-0.4191 0.401289,-0.922786 0.516398,-1.119302 0.23898,-0.407991 0.205392,-0.531698 -0.144364,-0.531698 -0.135227,0 -0.438755,-0.07603 -0.674505,-0.168953 l -0.428637,-0.168953 -0.907997,0.45502 c -1.1936655,0.598176 -2.2966825,0.898886 -3.2971525,0.898886 -0.416692,0 -0.779037,0.02141 -0.805209,0.04759 -0.02617,0.02617 0.0056,0.264298 0.07058,0.529166 0.207247,0.84462 0.240815,2.083156 0.07958,2.93613 -0.07914,0.418669 -0.179008,0.803529 -0.221928,0.855244 -0.08928,0.107576 0.179113,0.505366 0.818998,1.213847 0.377972,0.418492 1.281043,1.191178 1.392332,1.191306 0.02522,3e-5 0.144089,-0.199971 0.264145,-0.444446 z m 56.9137175,-2.4765 c -0.05759,-0.325967 -0.2402,-1.03587 -0.405791,-1.577563 -0.486351,-1.590929 -0.569222,-2.102552 -0.619252,-3.822831 l -0.04624,-1.590394 -0.417559,-0.375425 C 63.355692,66.743938 62.71695,66.371862 62.135061,66.190205 60.49362,65.677773 56.780022,65.39458 54.811395,65.631712 c -0.649012,0.07818 -1.433297,0.232137 -1.51207,0.296829 -0.04069,0.03342 0.163914,0.322455 1.463031,2.066717 0.606942,0.814916 1.570804,2.147689 2.141914,2.961716 0.571111,0.814027 1.33251,1.814152 1.692004,2.222499 0.586173,0.665833 0.684539,0.742869 0.953203,0.746504 0.333434,0.0045 1.635717,0.384816 3.178251,0.928146 0.796442,0.280532 1.177679,0.367476 1.764157,0.402329 0.58094,0.03452 0.759841,0.07486 0.800438,0.180467 0.116603,0.303357 0.150606,-0.305656 0.04913,-0.879995 z M 8.2722165,69.345502 c 0.446412,-0.08252 1.406354,-0.552853 1.410173,-0.690923 9.23e-4,-0.03319 -0.220861,-0.211464 -0.492844,-0.396164 -0.271984,-0.184699 -0.748121,-0.609736 -1.058085,-0.944525 l -0.56357,-0.608709 -0.253808,0.542375 c -0.179704,0.38402 -0.269923,0.733025 -0.309005,1.195371 -0.05299,0.62686 -0.06374,0.652997 -0.268553,0.652997 -0.452263,0 0.05035,0.165087 1.005818,0.330372 0.02637,0.0046 0.264817,-0.0318 0.529874,-0.08079 z m 5.2080375,-1.089784 c 0.168533,-0.299863 2.188815,-2.170527 3.168139,-2.933511 0.354711,-0.276353 0.392227,-0.342842 0.488808,-0.866305 0.05754,-0.311837 0.213411,-0.868299 0.34639,-1.236581 0.218945,-0.606362 0.539059,-1.077546 1.219499,-1.795008 0.05762,-0.06076 0.06815,-0.329949 0.0298,-0.762 -0.16066,-1.810045 0.340134,-3.562892 1.31568,-4.605055 1.055113,-1.127165 2.543351,-1.884891 3.906056,-1.988741 0.397441,-0.03029 0.776865,-0.01571 0.910166,0.03497 0.273037,0.103808 0.284173,0.06146 0.05909,-0.224686 -0.197243,-0.250755 -0.422334,-0.954817 -0.425014,-1.329411 -0.005,-0.705601 -0.596016,-1.429182 -1.860312,-2.27778 -1.35113,-0.906881 -1.809088,-1.14002 -2.874433,-1.463325 -1.542905,-0.468232 -2.034046,-0.544399 -3.857062,-0.598151 -2.002651,-0.05905 -4.095977,0.126815 -4.568538,0.405633 -0.633233,0.373616 -1.4851285,1.895667 -1.4851285,2.653424 0,0.364639 0.2949545,1.153612 0.6346905,1.697733 1.196159,1.915765 1.495439,2.836115 1.700687,5.229982 0.04774,0.556812 0.0581,0.577898 0.359722,0.732414 0.766354,0.392587 1.339256,1.037477 1.668887,1.878593 0.309333,0.789323 0.54668,1.97582 0.54668,2.732856 0,1.372249 -0.754501,2.960546 -2.065608,4.348304 -0.37649,0.3985 -0.354843,0.499599 0.131597,0.614606 0.445577,0.105346 0.453289,0.102405 0.650206,-0.247962 z m -14.8451945,-0.184647 0.42333399,-0.01117 -0.42333399,-0.07936 c -0.232833,-0.04365 -0.504173,-0.09579 -0.602979,-0.11588 -0.149373,-0.03037 -0.269633,-0.297106 -0.713618,-1.582801 -0.293685,-0.850452 -0.664314,-1.851077 -0.823621,-2.22361 -0.26551,-0.620885 -0.285587,-0.726726 -0.240913,-1.27 0.05512,-0.670276 0.39857,-1.795385 0.85041,-2.785836 0.1679,-0.368043 0.290185,-0.684256 0.271745,-0.702697 -0.04788,-0.04788 -1.228948,0.692802 -1.553876,0.974473 -0.642632,0.557079 -1.258289,2.532441 -1.162405,3.729627 0.100274,1.251997 0.827373,2.784163 1.650694,3.478398 0.445793,0.375898 1.363391,0.712575 1.731897,0.635452 0.09313,-0.01949 0.359833,-0.04046 0.592666,-0.0466 z M 11.154418,66.915758 c 0.279283,-0.552715 0.720268,-2.118027 0.836522,-2.969303 0.0732,-0.536045 0.07198,-0.845762 -0.0051,-1.295452 -0.08539,-0.497982 -0.370737,-1.259745 -0.471879,-1.259745 -0.01615,0 -0.136061,0.161925 -0.266472,0.359833 -0.543725,0.825141 -0.731028,0.991662 -1.117278,0.993307 -0.3205985,0.0014 -0.3639455,0.02598 -0.4127345,0.23436 -0.02998,0.128058 -0.202367,0.5046 -0.383075,0.83676 l -0.32856,0.603925 0.242692,0.596363 c 0.13348,0.328001 0.390289,0.799183 0.570684,1.047075 0.3089575,0.424552 1.0386435,1.255043 1.1027065,1.255043 0.01613,0 0.120766,-0.180975 0.232533,-0.402166 z m 24.18364,-0.988838 c 0,-0.01999 -0.225365,-0.2513 -0.500812,-0.514031 -0.44591,-0.425327 -0.534039,-0.568152 -0.803918,-1.302853 C 33.607113,62.949733 33.393831,61.828257 33.305677,60.283914 33.238267,59.102994 33.2,58.874993 32.968416,58.274477 32.618517,57.367158 32.40453,57.066337 31.951268,56.844584 31.320896,56.536181 30.2735,56.295978 29.446913,56.270253 c -0.422846,-0.01316 -0.918146,-0.04889 -1.100666,-0.07939 -0.260857,-0.0436 -0.647181,0.03692 -1.805711,0.376345 -1.681287,0.492586 -2.410535,0.800578 -2.724653,1.150734 -0.189322,0.211044 -0.754491,1.083111 -0.754491,1.164196 0,0.01558 0.423828,0.05407 0.941842,0.08554 0.518013,0.03146 1.270488,0.128523 1.672166,0.21569 0.401678,0.08717 0.920825,0.183352 1.153658,0.213743 0.874209,0.114108 1.979524,0.388176 2.713033,0.672711 1.778819,0.690019 2.484456,1.113684 3.11491,1.870192 0.395099,0.474097 0.933431,1.601015 0.931004,1.948918 -0.0031,0.440621 -0.187357,0.937295 -0.489376,1.318956 -0.160561,0.202901 -0.277699,0.383139 -0.260308,0.40053 0.01739,0.01739 0.291671,0.100906 0.609511,0.185591 0.505999,0.134817 1.890226,0.232154 1.890226,0.132919 z M -0.19232751,63.910091 c -0.02926,-0.430742 -0.06325,-0.795342 -0.07552,-0.810224 -0.04673,-0.05665 -0.704897,1.119671 -0.663736,1.186269 0.04706,0.07614 0.628178,0.397298 0.729891,0.403379 0.03442,0.0021 0.03863,-0.348682 0.0094,-0.779424 z M 40.544295,63.472341 c 0.420179,-0.721555 0.58797,-1.318354 0.585099,-2.081083 -0.0026,-0.700488 -0.02135,-0.766539 -0.702356,-2.478492 -0.77788,-1.955493 -1.026111,-2.329232 -2.125647,-3.200388 -1.183428,-0.937623 -1.71646,-1.207978 -2.530601,-1.283521 l -0.456268,-0.04234 0.298546,0.263869 c 0.407069,0.359786 0.995355,1.240332 1.311464,1.962997 0.32718,0.747977 0.58846,2.01042 0.655909,3.169205 0.02846,0.48895 0.136717,1.28076 0.240569,1.759578 l 0.188821,0.870576 0.46328,0.353351 c 1.867725,1.424543 1.688491,1.363427 2.071184,0.706245 z M 3.3077565,62.513091 c -0.0213,-0.08149 -0.03872,-0.01482 -0.03872,0.148167 0,0.162983 0.01743,0.229658 0.03872,0.148166 0.02129,-0.08149 0.02129,-0.214841 0,-0.296333 z m 5.85844,0.05755 c 0.213474,-0.130145 0.262015,-0.199101 0.1905,-0.270617 -0.222241,-0.222241 -0.106924,-0.649026 0.311087,-1.151317 0.8200555,-0.985397 0.9465395,-1.36612 0.4538525,-1.36612 -0.2934625,0 -0.9622075,0.664564 -1.1732935,1.165958 -0.147063,0.349321 -0.262999,1.79756 -0.143861,1.797059 0.04139,-1.7e-4 0.204156,-0.07891 0.361715,-0.174963 z"
       id="path921"
       inkscape:connector-curvature="0"
       sodipodi:nodetypes="ccccccccccscscccsscsscccsssccccccccsccssscsscsssccccccccscccccsccccccccccccccccccsccccscsscccssssccssccsscccccsscccssccccsssccscscccsscssccsccsccsscccssscssccsccccsccccccccccscccsccscccccccscsscccccccccccsccsccscsccccsccccscscccccccscscccccccscsccccccccccccccccssscssccccccccccccccccccccccssssccccccccssccccccccsssscssccsssscccscssscscccscccccccscsccccccscccsccsssscccccccccccsccscsccscccsssssssssscsssscccscccccsccccccccsccccsccccccscccccccscscccsccccsccccccsscccccccccsccccccscsssccssccccscscccscccccscccccscscccscccccssccssccsccccccccccscccsccscccccccccccsccccscsccsccccssscssscsssscccccccscscsssccccccssccccccsccscssscscccsccssccsscsscccccccccsccccsscscccsccccssccc" />
    <circle
       cx="55.706726"
       cy="-85.253784"
       r="5.2916665"
       id="circle20"
       style="fill:#aa79c1;fill-opacity:1;stroke:#9558b2;stroke-width:1.01544189;stroke-linecap:butt;stroke-miterlimit:4"
       transform="scale(1,-1)" />
    <circle
       cx="15.730772"
       cy="-85.253784"
       r="5.2916665"
       id="circle16"
       style="fill:#d5635c;fill-opacity:0.95045046;stroke:#cb3c33;stroke-width:1.01544189;stroke-linecap:butt;stroke-miterlimit:4"
       transform="scale(1,-1)" />
    <circle
       cx="35.71875"
       cy="-55.325974"
       r="5.2916665"
       id="circle18"
       style="fill:#60ad51;fill-opacity:1;stroke:#389826;stroke-width:1.01544189;stroke-linecap:butt;stroke-miterlimit:4"
       transform="scale(1,-1)" />
    <circle
       cx="-10.331345"
       cy="-79.10659"
       r="5.2916665"
       id="circle14"
       style="fill:#6682df;fill-opacity:1;stroke:#4063d8;stroke-width:1.01544189;stroke-linecap:butt;stroke-miterlimit:4"
       transform="scale(1,-1)" />
  </g>
</svg>
